<svg width="39" height="36" viewBox="0 0 39 36" fill="none" xmlns="http://www.w3.org/2000/svg">
<path fill-rule="evenodd" clip-rule="evenodd" d="M11.7455 2.87567C11.7455 1.80486 12.5466 0.935791 13.536 0.935791H25.474C26.4633 0.935791 27.2645 1.80486 27.2645 2.87567C27.2645 3.94648 26.4633 4.81555 25.474 4.81555H13.536C12.5466 4.81555 11.7455 3.94648 11.7455 2.87567ZM15.1946 35.8536H23.8154C29.8698 35.8536 32.8979 35.8536 35.0725 34.453C36.0081 33.8515 36.8162 33.0717 37.4508 32.1581C38.9038 30.0631 38.9038 27.1436 38.9038 21.3045C38.9038 15.4655 38.9038 12.5479 37.4489 10.4509C36.815 9.53744 36.0075 8.75766 35.0725 8.15602C32.8979 6.75543 29.8698 6.75543 23.8154 6.75543H15.1946C9.14022 6.75543 6.11207 6.75543 3.93746 8.15602C3.00249 8.7577 2.19503 9.53747 1.56111 10.4509C0.106201 12.546 0.106201 15.4655 0.106201 21.3006V21.3045C0.106201 27.1436 0.106201 30.0611 1.55917 32.1581C2.18769 33.066 2.99468 33.8458 3.93746 34.453C6.11207 35.8536 9.14022 35.8536 15.1946 35.8536ZM11.4215 21.3045C11.4215 16.998 15.0413 13.5101 19.505 13.5101C23.9687 13.5101 27.5885 16.9999 27.5885 21.3045C27.5885 25.6091 23.9667 29.099 19.505 29.099C15.0413 29.099 11.4215 25.6072 11.4215 21.3045ZM14.6553 21.3045C14.6553 18.7206 16.828 16.6294 19.505 16.6294C22.182 16.6294 24.3547 18.7225 24.3547 21.3045C24.3547 23.8865 22.182 25.9796 19.505 25.9796C16.828 25.9796 14.6553 23.8865 14.6553 21.3045ZM31.3596 13.5101C30.4673 13.5101 29.7437 14.2084 29.7437 15.0698C29.7437 15.9291 30.4673 16.6275 31.3596 16.6275H32.4382C33.3305 16.6275 34.0541 15.9291 34.0541 15.0698C34.0541 14.2084 33.3305 13.5101 32.4382 13.5101H31.3596Z" fill="#23555C"/>
</svg>
