<svg width="47" height="47" viewBox="0 0 47 47" fill="none" xmlns="http://www.w3.org/2000/svg">
<path fill-rule="evenodd" clip-rule="evenodd" d="M15.7455 7.87567C15.7455 6.80486 16.5466 5.93579 17.536 5.93579H29.474C30.4633 5.93579 31.2645 6.80486 31.2645 7.87567C31.2645 8.94648 30.4633 9.81555 29.474 9.81555H17.536C16.5466 9.81555 15.7455 8.94648 15.7455 7.87567ZM19.1946 40.8536H27.8154C33.8698 40.8536 36.8979 40.8536 39.0725 39.453C40.0081 38.8515 40.8162 38.0717 41.4508 37.1581C42.9038 35.0631 42.9038 32.1436 42.9038 26.3045C42.9038 20.4655 42.9038 17.5479 41.4489 15.4509C40.815 14.5374 40.0075 13.7577 39.0725 13.156C36.8979 11.7554 33.8698 11.7554 27.8154 11.7554H19.1946C13.1402 11.7554 10.1121 11.7554 7.93746 13.156C7.00249 13.7577 6.19503 14.5375 5.56111 15.4509C4.1062 17.546 4.1062 20.4655 4.1062 26.3006V26.3045C4.1062 32.1436 4.1062 35.0611 5.55917 37.1581C6.18769 38.066 6.99468 38.8458 7.93746 39.453C10.1121 40.8536 13.1402 40.8536 19.1946 40.8536ZM15.4215 26.3045C15.4215 21.998 19.0413 18.5101 23.505 18.5101C27.9687 18.5101 31.5885 21.9999 31.5885 26.3045C31.5885 30.6091 27.9667 34.099 23.505 34.099C19.0413 34.099 15.4215 30.6072 15.4215 26.3045ZM18.6553 26.3045C18.6553 23.7206 20.828 21.6294 23.505 21.6294C26.182 21.6294 28.3547 23.7225 28.3547 26.3045C28.3547 28.8865 26.182 30.9796 23.505 30.9796C20.828 30.9796 18.6553 28.8865 18.6553 26.3045ZM35.3596 18.5101C34.4673 18.5101 33.7437 19.2084 33.7437 20.0698C33.7437 20.9291 34.4673 21.6275 35.3596 21.6275H36.4382C37.3305 21.6275 38.0541 20.9291 38.0541 20.0698C38.0541 19.2084 37.3305 18.5101 36.4382 18.5101H35.3596Z" fill="#23555C"/>
</svg>
