<svg width="207" height="60" viewBox="0 0 207 60" fill="none" xmlns="http://www.w3.org/2000/svg">
<path d="M29.3935 15.1113C27.8993 15.0218 25.6236 15.0259 22.9672 15.6443C12.285 18.1305 7.20707 27.7942 6.59562 29.0067C5.83433 30.5163 3.41686 35.4397 3.80155 41.8076C4.35632 50.9911 10.5356 59.9998 10.5356 59.9998C7.96835 57.5584 1.05609 50.3076 0.108535 39.3092C-1.17511 24.4251 9.10217 10.1065 21.6835 6.04573C25.4899 4.81691 28.8914 4.72333 31.155 4.83726L29.3935 15.1113Z" fill="url(#paint0_linear_27_8051)"/>
<path d="M27.4941 2.39612C27.4941 2.39612 54.9853 3.40522 56.5483 24.8566C56.5483 24.8566 57.8887 39.342 52.3005 56.8588C54.6816 54.2831 58.3746 49.73 61.0593 43.175C63.0273 38.3695 68.5547 24.8851 61.7436 12.9509C58.0182 6.42437 52.3532 3.42149 50.5553 2.55074C39.7232 -2.69004 29.2232 1.64744 27.4941 2.39612Z" fill="#1D1D1D"/>
<path d="M46.5669 23.754V57.7133H40.3957L25.6925 36.3392H25.4455V57.7133H18.2983V23.754H24.5708L39.1566 45.1119H39.4522V23.754H46.5669Z" fill="url(#paint1_linear_27_8051)"/>
<path d="M101.789 6.98539V33.3765H98.7115L82.9554 13.6951V33.3724H79.2017V6.98132H82.2792L98.0352 26.6587V6.98132H101.789V6.98539Z" fill="#121720"/>
<path d="M128.725 30.0929V33.3724H109.665V6.98132H128.199V10.2609H113.419V18.3662H126.587V21.5725H113.419V30.0929H128.725Z" fill="#121720"/>
<path d="M151.013 33.3764L143.133 22.4798L135.366 33.3764H131.054L140.922 19.8431L131.657 6.98938H135.933L143.287 17.1292L150.564 6.98938H154.653L145.384 19.7333L155.326 33.3805H151.013V33.3764Z" fill="#121720"/>
<path d="M159.152 21.9875V6.98132H162.906V21.8329C162.906 27.6759 165.571 30.3166 170.296 30.3166C175.022 30.3166 177.723 27.6759 177.723 21.8329V6.98132H181.363V21.9875C181.363 29.6412 177.2 33.6735 170.26 33.6735C163.356 33.6776 159.152 29.6412 159.152 21.9875Z" fill="#121720"/>
<path d="M186.655 30.3573L188.044 27.4155C189.996 29.1855 193.333 30.4672 196.71 30.4672C201.249 30.4672 203.201 28.6931 203.201 26.3942C203.201 19.949 187.295 24.0179 187.295 14.2159C187.295 10.1429 190.445 6.67615 197.35 6.67615C200.427 6.67615 203.614 7.50621 205.793 9.01171L204.553 12.0268C202.266 10.5579 199.678 9.8784 197.35 9.8784C192.883 9.8784 190.972 11.7623 190.972 14.0613C190.972 20.5064 206.878 16.4741 206.878 26.1623C206.878 30.1946 203.65 33.6654 196.71 33.6654C192.697 33.6776 188.757 32.3186 186.655 30.3573Z" fill="#121720"/>
<path d="M79.3456 39.5563L81.81 44.322L84.2808 39.5563H85.7086L82.4358 45.502V49.0486H81.1776V45.502L77.9048 39.5563H79.3456ZM99.0416 40.3973L95.8992 49.0486H94.6149L98.2332 39.5563H99.0612L99.0416 40.3973ZM101.675 49.0486L98.5266 40.3973L98.507 39.5563H99.335L102.966 49.0486H101.675ZM101.512 45.5346V46.5647H96.1796V45.5346H101.512ZM119.103 46.0301H120.354C120.289 46.6299 120.118 47.1666 119.839 47.6404C119.561 48.1141 119.168 48.4901 118.659 48.7682C118.151 49.0421 117.516 49.179 116.756 49.179C116.199 49.179 115.693 49.0747 115.237 48.866C114.785 48.6574 114.396 48.3619 114.07 47.9794C113.744 47.5926 113.492 47.1297 113.313 46.5908C113.14 46.0475 113.053 45.4433 113.053 44.7784V43.833C113.053 43.1681 113.14 42.5661 113.313 42.0272C113.492 41.4839 113.746 41.0188 114.076 40.632C114.411 40.2452 114.813 39.9475 115.282 39.7388C115.752 39.5302 116.28 39.4259 116.866 39.4259C117.584 39.4259 118.19 39.5606 118.685 39.8301C119.181 40.0996 119.566 40.4734 119.839 40.9515C120.118 41.4252 120.289 41.975 120.354 42.6009H119.103C119.042 42.1576 118.929 41.7773 118.764 41.46C118.598 41.1383 118.364 40.8906 118.06 40.7168C117.755 40.5429 117.358 40.456 116.866 40.456C116.445 40.456 116.073 40.5364 115.752 40.6972C115.434 40.858 115.167 41.0862 114.95 41.3817C114.737 41.6773 114.576 42.0315 114.467 42.4444C114.359 42.8573 114.304 43.3158 114.304 43.82V44.7784C114.304 45.2434 114.352 45.6802 114.448 46.0888C114.548 46.4973 114.698 46.8559 114.898 47.1645C115.098 47.4731 115.352 47.7164 115.66 47.8946C115.969 48.0685 116.334 48.1554 116.756 48.1554C117.29 48.1554 117.716 48.0707 118.033 47.9012C118.351 47.7317 118.59 47.4883 118.751 47.171C118.916 46.8537 119.033 46.4734 119.103 46.0301ZM137.482 43.6375V44.661H132.344V43.6375H137.482ZM132.54 39.5563V49.0486H131.282V39.5563H132.54ZM138.577 39.5563V49.0486H137.325V39.5563H138.577ZM153.338 39.5563V49.0486H152.099V39.5563H153.338ZM156.389 39.5563V40.5864H149.054V39.5563H156.389ZM168.359 39.5563V49.0486H167.101V39.5563H168.359ZM187.162 39.5563V49.0486H185.897L181.119 41.7273V49.0486H179.86V39.5563H181.119L185.917 46.8972V39.5563H187.162ZM205.619 44.322V47.7969C205.502 47.9707 205.315 48.1663 205.059 48.3836C204.802 48.5966 204.448 48.7835 203.996 48.9443C203.548 49.1007 202.97 49.179 202.262 49.179C201.684 49.179 201.151 49.079 200.665 48.8791C200.182 48.6748 199.763 48.3793 199.406 47.9924C199.054 47.6013 198.78 47.1275 198.585 46.5712C198.394 46.0105 198.298 45.376 198.298 44.6675V43.9308C198.298 43.2224 198.381 42.59 198.546 42.0337C198.715 41.4774 198.963 41.0058 199.289 40.619C199.615 40.2278 200.015 39.9323 200.489 39.7323C200.962 39.5281 201.506 39.4259 202.118 39.4259C202.844 39.4259 203.451 39.552 203.937 39.804C204.428 40.0518 204.811 40.3951 205.085 40.8341C205.363 41.2731 205.541 41.7729 205.619 42.3336H204.361C204.305 41.9902 204.192 41.6773 204.022 41.3948C203.857 41.1123 203.62 40.8863 203.311 40.7168C203.003 40.5429 202.605 40.456 202.118 40.456C201.679 40.456 201.299 40.5364 200.977 40.6972C200.656 40.858 200.391 41.0884 200.182 41.3883C199.973 41.6882 199.817 42.0511 199.713 42.477C199.613 42.9029 199.563 43.3832 199.563 43.9178V44.6675C199.563 45.2152 199.626 45.7041 199.752 46.1344C199.882 46.5647 200.067 46.9319 200.306 47.2362C200.545 47.5361 200.83 47.7643 201.16 47.9207C201.495 48.0772 201.864 48.1554 202.268 48.1554C202.716 48.1554 203.079 48.1185 203.357 48.0446C203.635 47.9664 203.853 47.8751 204.009 47.7708C204.165 47.6621 204.285 47.56 204.368 47.4644V45.339H202.171V44.322H205.619Z" fill="black"/>
<defs>
<linearGradient id="paint0_linear_27_8051" x1="-19.9853" y1="-3.98549" x2="51.7274" y2="59.3408" gradientUnits="userSpaceOnUse">
<stop stop-color="#60C7D7"/>
<stop offset="1" stop-color="#206F77"/>
</linearGradient>
<linearGradient id="paint1_linear_27_8051" x1="-18.9868" y1="-5.11585" x2="52.7259" y2="58.2105" gradientUnits="userSpaceOnUse">
<stop stop-color="#60C7D7"/>
<stop offset="1" stop-color="#206F77"/>
</linearGradient>
</defs>
</svg>
