<svg width="725" height="844" viewBox="0 0 725 844" fill="none" xmlns="http://www.w3.org/2000/svg">
<g clip-path="url(#clip0_27_7964)">
<path fill-rule="evenodd" clip-rule="evenodd" d="M717.003 676.014C717.345 677.661 716.717 679.33 715.405 680.364C714.086 681.398 712.317 681.605 710.798 680.877C697.157 674.409 670.757 661.887 670.757 661.887L708.153 632.593C708.153 632.593 713.993 661.224 717.003 676.014Z" fill="#CCF9FF"/>
<path fill-rule="evenodd" clip-rule="evenodd" d="M673.332 705.651C673.46 707.327 672.626 708.903 671.185 709.759C669.745 710.614 667.962 710.593 666.55 709.673C653.85 701.508 629.276 685.706 629.276 685.706L670.123 661.453C670.123 661.453 672.241 690.597 673.325 705.651H673.332Z" fill="#DBDBDB"/>
<path fill-rule="evenodd" clip-rule="evenodd" d="M625.469 730.174C625.319 731.85 624.228 733.262 622.666 733.868C621.104 734.475 619.35 734.154 618.109 733.013C606.949 722.844 585.363 703.162 585.363 703.162L629.683 686.062C629.683 686.062 626.902 715.149 625.469 730.174Z" fill="#CCF9FF"/>
<path fill-rule="evenodd" clip-rule="evenodd" d="M573.861 745.478C573.426 747.104 572.113 748.309 570.473 748.637C568.833 748.965 567.157 748.352 566.131 747.018C556.867 735.095 538.947 712.019 538.947 712.019L585.534 702.727C585.534 702.727 577.84 730.916 573.861 745.478Z" fill="#DBDBDB"/>
<path fill-rule="evenodd" clip-rule="evenodd" d="M520.249 752.41C519.529 753.929 518.017 754.877 516.341 754.906C514.666 754.927 513.132 754.021 512.362 752.524C505.424 739.117 491.989 713.167 491.989 713.167L539.489 712.49C539.489 712.49 526.803 738.811 520.242 752.41H520.249Z" fill="#CCF9FF"/>
<path fill-rule="evenodd" clip-rule="evenodd" d="M463.999 758.935L444.131 709.659L491.482 713.467L463.999 758.935Z" fill="#C5D0FF"/>
<path fill-rule="evenodd" clip-rule="evenodd" d="M8.72821 495.44C8.41445 497.081 9.03485 498.756 10.3398 499.776C11.6591 500.81 13.4419 501.017 14.9394 500.304C31.6476 492.374 68.8291 474.739 68.8291 474.739L20.6514 436.994C20.6514 436.994 12.4293 477.32 8.72821 495.433V495.44Z" fill="#99F2FF" fill-opacity="0.5"/>
<path fill-rule="evenodd" clip-rule="evenodd" d="M64.3653 535.275C64.2869 536.943 65.1426 538.512 66.5831 539.339C68.0378 540.174 69.8277 540.124 71.2112 539.204C86.6143 528.971 120.894 506.201 120.894 506.201L67.8168 475.73C67.8168 475.73 65.4421 516.812 64.3724 535.275H64.3653Z" fill="#DBDBDB"/>
<path fill-rule="evenodd" clip-rule="evenodd" d="M127.361 565.247C127.539 566.901 128.623 568.327 130.17 568.926C131.739 569.532 133.493 569.204 134.72 568.092C148.383 555.634 178.79 527.908 178.79 527.908L121.691 505.88C121.691 505.88 125.606 546.848 127.361 565.254V565.247Z" fill="#CCF9FF"/>
<path fill-rule="evenodd" clip-rule="evenodd" d="M194.286 584.929C194.742 586.533 196.054 587.752 197.68 588.073C199.328 588.401 201.003 587.781 202.023 586.469C213.362 571.864 238.599 539.354 238.599 539.354L178.576 527.388C178.576 527.388 189.415 567.087 194.286 584.929Z" fill="#DBDBDB"/>
<path fill-rule="evenodd" clip-rule="evenodd" d="M263.8 593.657C264.541 595.147 266.053 596.11 267.707 596.132C269.383 596.153 270.924 595.24 271.687 593.771C280.18 577.348 299.099 540.801 299.099 540.801L237.899 539.931C237.899 539.931 255.77 577.006 263.792 593.664L263.8 593.657Z" fill="#CCF9FF"/>
<path fill-rule="evenodd" clip-rule="evenodd" d="M335.204 599.725L360.798 536.244L299.791 541.15L335.197 599.725H335.204Z" fill="#FFDAC9"/>
<path d="M502.336 714.928C468.948 714.928 434.433 709.694 399.277 699.261C398.464 699.019 398.008 698.17 398.243 697.357C398.485 696.544 399.334 696.088 400.147 696.323C448.089 710.543 494.827 715.035 539.061 709.666C574.438 705.373 608.304 694.804 639.723 678.246C693.264 650.035 721.503 613.717 721.781 613.353C722.294 612.683 723.257 612.554 723.927 613.068C724.598 613.581 724.726 614.544 724.213 615.214C723.927 615.585 695.367 652.346 641.285 680.884C609.523 697.643 575.287 708.339 539.531 712.689C527.316 714.172 514.908 714.914 502.343 714.914L502.336 714.928Z" fill="#2C2C2C"/>
<path d="M285.807 542.627C269.634 542.627 253.675 541.671 237.951 539.76C191.934 534.162 147.878 520.392 107.009 498.827C37.4169 462.116 0.677481 414.823 0.313795 414.352C-0.199645 413.682 -0.0712848 412.726 0.599039 412.206C1.26936 411.692 2.22493 411.821 2.7455 412.491C3.10205 412.962 39.5134 459.799 108.564 496.196C149.097 517.561 192.782 531.203 238.414 536.736C295.463 543.661 355.742 537.877 417.583 519.536C418.389 519.294 419.244 519.757 419.487 520.57C419.729 521.383 419.266 522.232 418.453 522.467C373.206 535.888 328.779 542.627 285.807 542.627Z" fill="#1C1C1C"/>
<path fill-rule="evenodd" clip-rule="evenodd" d="M185.879 733.797L184.339 742.625L203.379 735.566L196.483 729.889C214.461 719.478 221.52 692.95 212.093 667.478C201.846 639.759 175.903 623.793 154.182 631.801C132.46 639.845 123.154 668.897 133.409 696.616C142.829 722.045 165.456 737.619 185.879 733.79V733.797Z" fill="#F3F3F3"/>
<path fill-rule="evenodd" clip-rule="evenodd" d="M608.817 629.833L610.115 637.285L594.042 631.331L599.861 626.539C584.693 617.753 578.731 595.362 586.69 573.868C595.34 550.478 617.232 537.001 635.566 543.761C653.9 550.55 661.752 575.066 653.102 598.456C645.15 619.914 626.053 633.057 608.817 629.833Z" fill="#FFDAC9"/>
<path fill-rule="evenodd" clip-rule="evenodd" d="M375.509 467.486C375.509 467.486 348.604 467.415 320.229 482.94L359.721 544.937C359.721 544.937 386.812 540.495 396.938 488.851C407.029 437.208 396.938 485.214 396.938 485.214L375.502 467.486H375.509Z" fill="#1C1C1C"/>
<path fill-rule="evenodd" clip-rule="evenodd" d="M460.334 470.788C460.334 470.788 487.24 470.717 515.614 486.241L476.122 548.239C476.122 548.239 449.031 543.796 438.905 492.153C428.815 440.509 438.905 488.516 438.905 488.516L460.341 470.788H460.334Z" fill="#1C1C1C"/>
<path fill-rule="evenodd" clip-rule="evenodd" d="M389.423 482.675L385.166 512.483L411.187 528.707L445.323 520.962L453.546 480.878L389.423 482.675Z" fill="#FFAA72"/>
<path fill-rule="evenodd" clip-rule="evenodd" d="M363.692 421.163C363.692 421.163 347.283 418.852 342.627 433.015C338.149 446.485 350.557 457.317 363.692 456.583C363.692 456.583 375.729 495.012 413.389 496.995C457.473 499.305 478.132 464.62 478.132 464.62C478.132 464.62 502.135 465.867 505.038 447.99C508.083 429.342 485.035 426.554 485.035 426.554L482.76 409.817L455.669 376.486L385.677 388.31L368.242 403.87L363.692 421.156V421.163Z" fill="#FFC8A3"/>
<path fill-rule="evenodd" clip-rule="evenodd" d="M375.559 402.116C373.342 400.761 362.937 493.543 361.497 498.207C360.791 500.482 356.726 415.329 365.64 384.609C377.706 343.17 427.039 331.204 465.525 347.577C503.976 363.943 506.379 407.664 497.651 431.039L484.886 426.853C484.886 426.853 455.207 507.164 453.317 506.315C449.095 504.404 475.445 419.145 475.445 419.145L450.907 410.003V393.594L441.394 408.534C441.394 408.534 390.656 398.921 375.559 402.108V402.116Z" fill="#1C1C1C"/>
<path d="M480.009 444.674C479.232 444.674 478.561 444.082 478.49 443.29C478.412 442.449 479.025 441.7 479.866 441.621L494.435 440.224C495.284 440.145 496.026 440.759 496.104 441.6C496.182 442.442 495.569 443.19 494.728 443.269L480.159 444.666C480.109 444.666 480.059 444.666 480.009 444.666V444.674Z" fill="#000045"/>
<path d="M488.488 452.754C487.896 452.754 487.333 452.411 487.083 451.834L483.525 443.647C483.189 442.87 483.539 441.971 484.316 441.636C485.086 441.301 485.992 441.65 486.327 442.428L489.886 450.614C490.221 451.392 489.864 452.29 489.094 452.625C488.894 452.711 488.688 452.754 488.488 452.754Z" fill="#000045"/>
<path d="M359.985 440.602C359.778 440.602 359.571 440.559 359.365 440.473L349.745 436.216C348.975 435.874 348.625 434.968 348.967 434.198C349.31 433.428 350.208 433.078 350.986 433.421L360.605 437.678C361.376 438.02 361.725 438.926 361.383 439.696C361.133 440.267 360.57 440.609 359.985 440.609V440.602Z" fill="#000045"/>
<path d="M412.143 458.551C411.915 458.551 411.687 458.501 411.466 458.394C410.71 458.016 410.403 457.104 410.774 456.348L415.766 446.293C416.144 445.537 417.056 445.23 417.812 445.601C418.568 445.979 418.875 446.892 418.504 447.648L413.512 457.703C413.248 458.237 412.706 458.551 412.143 458.551Z" fill="#000045"/>
<path d="M434.162 445.302C433.827 445.302 433.492 445.195 433.207 444.966C432.544 444.439 432.444 443.476 432.972 442.82C433.235 442.492 439.482 434.904 452.004 438.641C452.81 438.883 453.274 439.732 453.031 440.545C452.789 441.351 451.94 441.814 451.127 441.572C440.566 438.413 435.41 444.667 435.36 444.731C435.061 445.109 434.612 445.302 434.17 445.302H434.162Z" fill="#000045"/>
<path d="M402.793 440.687C402.179 440.687 401.595 440.309 401.366 439.703C401.238 439.375 398.264 432.073 387.354 431.802C386.512 431.781 385.842 431.082 385.863 430.233C385.885 429.392 386.591 428.736 387.432 428.743C400.489 429.071 404.083 438.227 404.226 438.619C404.525 439.411 404.126 440.288 403.334 440.588C403.156 440.652 402.978 440.687 402.8 440.687H402.793Z" fill="#000045"/>
<path d="M460.477 426.069C460.027 426.069 459.578 425.869 459.279 425.491C455.535 420.749 450.885 418.453 445.444 418.645C441.358 418.795 438.392 420.335 438.363 420.35C437.614 420.742 436.694 420.457 436.295 419.708C435.903 418.959 436.188 418.039 436.937 417.64C437.079 417.568 451.213 410.337 461.675 423.587C462.195 424.25 462.088 425.213 461.425 425.734C461.147 425.955 460.812 426.062 460.477 426.062V426.069Z" fill="#000045"/>
<path d="M410.744 420.528C410.266 420.528 409.802 420.307 409.503 419.893C409.175 419.444 401.438 409.061 388.487 415.151C387.724 415.507 386.812 415.179 386.455 414.416C386.099 413.653 386.427 412.741 387.19 412.384C402.472 405.203 411.892 417.975 411.984 418.103C412.476 418.788 412.32 419.743 411.635 420.235C411.364 420.428 411.05 420.521 410.744 420.521V420.528Z" fill="#000045"/>
<path fill-rule="evenodd" clip-rule="evenodd" d="M370.882 502.828C366.111 507.235 358.659 506.978 354.216 502.243C349.702 497.472 349.923 489.985 354.694 485.471C359.208 481.249 365.926 480.992 369.306 486.17C370.261 487.674 369.962 489.543 369.199 491.012C368.578 492.11 367.694 493.144 366.517 493.144C365.783 493.179 365.048 492.702 364.314 491.896C362.881 490.356 360.463 490.241 358.916 491.675C357.375 493.108 357.261 495.526 358.695 497.109C361.305 499.861 364.093 500.853 366.624 500.817C370.404 500.746 373.927 498.285 375.909 494.684C377.963 490.869 378.255 485.913 375.688 481.984C369.598 472.663 357.554 472.292 349.446 479.93C341.63 487.303 341.259 499.64 348.64 507.492C356.013 515.307 368.386 515.678 376.201 508.297C376.237 508.262 376.273 508.226 376.308 508.226L406.665 479.637C408.206 478.168 408.284 475.744 406.815 474.204C405.382 472.699 402.964 472.628 401.417 474.054L370.953 502.757C370.917 502.757 370.917 502.792 370.882 502.828Z" fill="white"/>
<path d="M407.871 478.54C407.514 478.54 407.151 478.411 406.865 478.162L402.772 474.56C402.138 474.004 402.073 473.034 402.63 472.4C403.186 471.765 404.149 471.701 404.79 472.257L408.884 475.858C409.518 476.414 409.582 477.384 409.026 478.019C408.727 478.361 408.299 478.54 407.878 478.54H407.871Z" fill="#000045"/>
<path fill-rule="evenodd" clip-rule="evenodd" d="M312.998 841.869L307.458 840.144L317.291 598.927L365.041 522.253L373.591 521.077C373.591 521.077 378.034 510.359 381.222 508.084C381.222 508.084 423.652 504.889 447.142 513.518C448.717 514.138 449.787 515.643 449.787 517.369V521.219L429.67 841.869H312.991H312.998Z" fill="#272727"/>
<path fill-rule="evenodd" clip-rule="evenodd" d="M445.209 524.079C445.209 524.079 469.141 531.638 481.549 535.567C485.991 536.965 489.293 540.78 490.028 545.401C493.108 564.669 501.002 614.188 501.002 614.188L494.912 841.862H416.292C416.363 799.432 417.911 638.704 437.507 545.401C439.304 536.815 441.579 530.312 445.216 524.072L445.209 524.079Z" fill="#FF7A3D"/>
<path fill-rule="evenodd" clip-rule="evenodd" d="M445.209 524.079C445.209 524.079 469.141 531.638 481.549 535.567C485.991 536.965 489.293 540.78 490.028 545.401C493.108 564.669 501.002 614.188 501.002 614.188L494.912 841.862H416.292C416.363 799.432 417.911 638.704 437.507 545.401C439.304 536.815 441.579 530.312 445.216 524.072L445.209 524.079Z" fill="url(#paint0_linear_27_7964)"/>
<path fill-rule="evenodd" clip-rule="evenodd" d="M355.358 516.998C355.358 516.998 333.85 522.539 321.299 525.733C315.644 527.202 310.909 530.982 308.271 536.195C299.5 553.409 279.896 591.953 279.896 591.953L280.153 592.395C280.153 592.395 250.053 765.495 235.598 839.38C235.448 840.265 235.448 841.106 235.669 841.876H323.981C331.361 744.943 347.984 612.547 371.146 521.448C371.146 521.448 361.64 520.314 355.365 517.005L355.358 516.998Z" fill="#FF7A3D"/>
<path fill-rule="evenodd" clip-rule="evenodd" d="M355.358 516.998C355.358 516.998 333.85 522.539 321.299 525.733C315.644 527.202 310.909 530.982 308.271 536.195C299.5 553.409 279.896 591.953 279.896 591.953L280.153 592.395C280.153 592.395 250.053 765.495 235.598 839.38C235.448 840.265 235.448 841.106 235.669 841.876H323.981C331.361 744.943 347.984 612.547 371.146 521.448C371.146 521.448 361.64 520.314 355.365 517.005L355.358 516.998Z" fill="url(#paint1_linear_27_7964)"/>
<path d="M436.987 525.804C436.844 525.804 436.702 525.783 436.559 525.74C421.02 521.205 382.17 522.538 381.778 522.553C380.915 522.588 380.223 521.925 380.195 521.076C380.166 520.235 380.822 519.522 381.671 519.493C383.282 519.436 421.412 518.124 437.422 522.802C438.235 523.037 438.698 523.886 438.463 524.699C438.27 525.369 437.657 525.797 436.994 525.797L436.987 525.804Z" fill="white"/>
<path d="M493.479 285.936C492.944 285.936 492.431 285.657 492.145 285.158L479.666 263.173C479.245 262.439 479.509 261.504 480.244 261.091C480.978 260.677 481.912 260.934 482.326 261.668L494.805 283.654C495.219 284.388 494.962 285.322 494.228 285.736C493.992 285.871 493.728 285.936 493.472 285.936H493.479Z" fill="#AB3DFF"/>
<path d="M619.285 192.996C619.057 192.996 618.829 192.946 618.615 192.839C600.245 183.868 592.166 175.967 588.9 169.898C577.069 164.329 570.109 143.727 569.81 142.836C569.546 142.037 569.974 141.167 570.78 140.903C571.585 140.632 572.448 141.074 572.712 141.873C572.776 142.058 578.289 158.381 587.167 165.249C586.639 162.617 587.031 160.556 587.531 159.18C589.192 154.609 594.262 151.807 598.826 152.94C602.534 153.86 605.116 156.912 605.565 160.906C605.986 164.664 604.317 168.172 601.415 169.641C598.762 170.982 596.088 171.503 593.442 171.21C597.621 176.723 605.893 183.226 619.956 190.093C620.712 190.464 621.032 191.377 620.662 192.14C620.398 192.682 619.856 192.996 619.285 192.996ZM591.175 167.545C594.113 168.636 597.022 168.429 600.038 166.91C602.085 165.883 602.763 163.323 602.527 161.248C602.413 160.221 601.75 156.813 598.092 155.907C595.375 155.237 591.645 156.813 590.404 160.221C589.677 162.218 589.834 164.7 591.175 167.545Z" fill="#AB3DFF"/>
<path d="M354.521 290.806C351.926 290.806 350.114 290.642 349.893 290.621C349.052 290.542 348.439 289.794 348.517 288.952C348.595 288.111 349.351 287.497 350.186 287.576C350.321 287.59 361.595 288.61 368.719 285.379C367.307 284.894 366.316 284.181 365.667 283.554C362.972 280.965 362.587 276.537 364.804 273.677C366.609 271.345 369.568 270.475 372.52 271.402C375.301 272.28 377.255 274.561 377.384 277.093C377.476 278.976 377.17 280.694 376.471 282.227C380.792 281.029 386.996 277.82 395.682 270.504C396.324 269.962 397.294 270.04 397.836 270.689C398.378 271.338 398.299 272.301 397.65 272.843C386.397 282.32 378.739 285.436 373.647 285.886C368.691 290.1 359.905 290.813 354.507 290.813L354.521 290.806ZM370.196 274.098C369.276 274.098 368.12 274.383 367.222 275.546C366.095 277 366.052 279.682 367.785 281.343C368.256 281.792 369.639 282.834 372.413 282.834C373.811 281.322 374.439 279.489 374.324 277.243C374.253 275.788 372.905 274.726 371.6 274.312C371.337 274.226 370.816 274.098 370.188 274.098H370.196Z" fill="#FF3D3D"/>
<path d="M669.838 172.551C669.018 172.551 668.341 171.902 668.312 171.082L666.957 134.599C666.929 133.758 667.585 133.045 668.426 133.016C669.296 132.981 669.981 133.644 670.01 134.485L671.364 170.968C671.393 171.809 670.737 172.523 669.895 172.551C669.874 172.551 669.86 172.551 669.838 172.551Z" fill="#FF3D3D"/>
<path fill-rule="evenodd" clip-rule="evenodd" d="M474.716 168.679L477.141 178.149C477.141 178.149 491.931 185.929 505.18 180.317L503.676 166.076C503.676 166.076 488.408 172.352 474.716 168.686V168.679Z" fill="#FF7A3D"/>
<path fill-rule="evenodd" clip-rule="evenodd" d="M279.267 244.361C279.267 244.361 291.676 242.928 302.943 231.697L307.086 240.432C307.086 240.432 302.643 259.044 285.393 263.038L279.26 244.354L279.267 244.361Z" fill="#AB3DFF"/>
<path fill-rule="evenodd" clip-rule="evenodd" d="M537.891 343.862L544.388 333.514C544.388 333.514 546.477 348.162 558.222 354.031L553.451 356.384C553.451 356.384 545.707 357.667 537.891 343.869V343.862Z" fill="#3D61FF"/>
<path d="M381.97 188.09C378.654 188.09 375.951 185.387 375.951 182.071C375.951 178.755 378.654 176.053 381.97 176.053C385.286 176.053 387.988 178.755 387.988 182.071C387.988 185.387 385.286 188.09 381.97 188.09ZM381.97 179.112C380.337 179.112 379.01 180.438 379.01 182.071C379.01 183.704 380.337 185.031 381.97 185.031C383.603 185.031 384.929 183.704 384.929 182.071C384.929 180.438 383.603 179.112 381.97 179.112Z" fill="#3D61FF"/>
<path d="M645.835 112.187C642.519 112.187 639.816 109.484 639.816 106.168C639.816 102.852 642.519 100.149 645.835 100.149C649.151 100.149 651.853 102.852 651.853 106.168C651.853 109.484 649.151 112.187 645.835 112.187ZM645.835 103.209C644.202 103.209 642.875 104.535 642.875 106.168C642.875 107.801 644.202 109.127 645.835 109.127C647.468 109.127 648.794 107.801 648.794 106.168C648.794 104.535 647.468 103.209 645.835 103.209Z" fill="#3D61FF"/>
<path d="M303.021 381.022C299.877 381.022 297.324 378.469 297.324 375.324C297.324 372.179 299.877 369.626 303.021 369.626C306.166 369.626 308.719 372.179 308.719 375.324C308.719 378.469 306.166 381.022 303.021 381.022ZM303.021 372.685C301.567 372.685 300.383 373.869 300.383 375.324C300.383 376.779 301.567 377.962 303.021 377.962C304.476 377.962 305.66 376.779 305.66 375.324C305.66 373.869 304.476 372.685 303.021 372.685Z" fill="#FF7A3D"/>
<path d="M633.07 158.731C633.07 158.731 633.034 158.731 633.02 158.731C629.205 158.61 625.939 156.656 624.477 153.639C623.621 151.871 622.708 148.191 626.21 143.506C627.857 141.288 628.378 139.399 627.75 137.88C626.909 135.855 624.22 134.785 622.174 134.478C618.629 133.951 616.241 132.553 615.078 130.335C613.823 127.939 614.137 124.78 616.019 120.929C616.982 118.947 617.168 117.321 616.569 116.087C615.606 114.119 612.896 113.527 612.868 113.52C612.047 113.349 611.513 112.536 611.684 111.716C611.855 110.889 612.661 110.361 613.481 110.525C613.652 110.561 617.667 111.409 619.307 114.718C620.355 116.843 620.177 119.389 618.772 122.27C617.788 124.281 616.818 127.062 617.788 128.909C618.644 130.542 620.89 131.191 622.63 131.447C625.604 131.882 629.255 133.494 630.581 136.703C631.316 138.479 631.58 141.417 628.67 145.325C626.787 147.842 626.281 150.324 627.237 152.306C628.185 154.267 630.488 155.586 633.12 155.672C633.961 155.7 634.625 156.406 634.596 157.248C634.567 158.075 633.89 158.731 633.07 158.731Z" fill="#FF7A3D"/>
<path d="M641.414 843.402H77.0446C76.2031 843.402 75.5186 842.718 75.5186 841.876C75.5186 841.035 76.2031 840.35 77.0446 840.35H641.407C642.248 840.35 642.933 841.035 642.933 841.876C642.933 842.718 642.248 843.402 641.407 843.402H641.414Z" fill="#2C2C2C"/>
<path fill-rule="evenodd" clip-rule="evenodd" d="M665.73 284.438C665.73 284.438 662.65 279.004 659.162 281.172C655.711 283.304 662.942 290.863 664.561 296.112C666.172 301.36 671.35 313.219 669.26 323.681L679.351 341.337L688.379 352.897L706.292 331.867L665.73 284.445V284.438Z" fill="#FFC8A3"/>
<path fill-rule="evenodd" clip-rule="evenodd" d="M445.208 524.122C450.97 514.209 460.219 505.039 476.371 489.251C517.553 449.131 545.671 427.994 545.671 427.994C545.671 427.994 611.078 352.383 623.486 340.788C635.894 329.229 644.737 334.62 644.737 334.62C644.737 334.62 655.198 326.07 660.703 321.556C662.757 319.901 665.659 319.759 667.82 321.263C674.466 325.963 687.858 337.415 691.716 355.507C692.123 357.268 691.788 359.137 690.839 360.684C687.352 366.339 678.652 380.394 678.652 380.394C678.652 380.394 679.572 390.086 670.687 403.627C661.801 417.205 599.041 499.534 599.041 499.534L501.002 613.938V614.195L445.208 524.122Z" fill="#FF7A3D"/>
<path fill-rule="evenodd" clip-rule="evenodd" d="M445.208 524.122C450.97 514.209 460.219 505.039 476.371 489.251C517.553 449.131 545.671 427.994 545.671 427.994C545.671 427.994 611.078 352.383 623.486 340.788C635.894 329.229 644.737 334.62 644.737 334.62C644.737 334.62 655.198 326.07 660.703 321.556C662.757 319.901 665.659 319.759 667.82 321.263C674.466 325.963 687.858 337.415 691.716 355.507C692.123 357.268 691.788 359.137 690.839 360.684C687.352 366.339 678.652 380.394 678.652 380.394C678.652 380.394 679.572 390.086 670.687 403.627C661.801 417.205 599.041 499.534 599.041 499.534L501.002 613.938V614.195L445.208 524.122Z" fill="url(#paint2_linear_27_7964)"/>
<path d="M675.237 375.31C674.652 375.31 674.096 374.975 673.839 374.404C665.346 355.314 649.529 341.152 649.373 341.009C648.738 340.446 648.681 339.483 649.244 338.849C649.808 338.214 650.77 338.157 651.405 338.72C652.075 339.312 667.863 353.446 676.635 373.156C676.977 373.926 676.635 374.832 675.857 375.174C675.658 375.267 675.444 375.31 675.237 375.31Z" fill="white"/>
<path fill-rule="evenodd" clip-rule="evenodd" d="M681.019 199.136L624.163 231.96C624.163 231.96 693.256 318.967 705.828 334.784C706.948 336.196 708.959 336.574 710.499 335.689C713.772 333.8 719.171 330.683 722.38 328.829C723.884 327.959 724.555 326.169 723.991 324.522C717.516 305.667 681.019 199.143 681.019 199.143V199.136Z" fill="#2C2C2C"/>
<path d="M657.022 223.252C672.719 214.19 683.414 203.329 680.911 198.994C678.408 194.659 663.655 198.491 647.959 207.554C632.262 216.616 621.567 227.477 624.07 231.812C626.573 236.147 641.326 232.315 657.022 223.252Z" fill="#D5D5D5"/>
<path d="M674.865 289.088C674.523 289.088 674.18 288.974 673.895 288.738C673.246 288.203 673.154 287.234 673.688 286.585C685.797 271.93 690.903 257.682 693.049 248.312C693.242 247.492 694.062 246.979 694.882 247.164C695.702 247.349 696.216 248.169 696.03 248.997C693.805 258.688 688.528 273.421 676.042 288.531C675.742 288.895 675.3 289.088 674.865 289.088Z" fill="white"/>
<path d="M689.256 308.178C688.935 308.178 688.614 308.078 688.343 307.871C687.666 307.365 687.53 306.409 688.036 305.732C696.644 294.229 700.937 283.34 703.026 276.23C703.261 275.417 704.11 274.954 704.923 275.196C705.736 275.432 706.199 276.28 705.957 277.093C703.796 284.445 699.361 295.698 690.482 307.564C690.183 307.964 689.719 308.178 689.256 308.178Z" fill="white"/>
<path d="M656.774 268.942C656.381 268.942 655.996 268.793 655.697 268.5C655.098 267.908 655.098 266.939 655.69 266.34C675.592 246.287 680.969 225.172 682.353 217.021C682.495 216.187 683.273 215.623 684.114 215.773C684.949 215.916 685.505 216.707 685.362 217.534C683.929 225.97 678.374 247.82 657.85 268.493C657.551 268.793 657.159 268.942 656.766 268.942H656.774Z" fill="white"/>
<path fill-rule="evenodd" clip-rule="evenodd" d="M703.24 264.072C703.24 264.072 710.471 266.532 708.56 274.198C708.56 274.198 714.906 278.968 712.525 285.172C712.525 285.172 718.065 287.412 716.596 293.872C716.596 293.872 721.146 295.705 719.278 300.775C717.367 305.874 711.904 310.317 709.366 309.803C706.834 309.29 705.657 305.731 710.428 300.626C710.428 300.626 705.251 304.918 702.391 302.28C698.797 298.943 703.825 293.986 703.825 293.986C703.825 293.986 699.346 296.297 697.514 293.58C694.946 289.765 700.38 284.039 700.38 284.039C700.38 284.039 695.902 287.198 693.663 286.385C687.352 284.074 695.645 270.711 703.24 264.072Z" fill="#FFC8A3"/>
<path d="M702.078 283.653C701.728 283.653 701.379 283.532 701.093 283.29C700.452 282.741 700.373 281.778 700.915 281.136L705.878 275.282C706.427 274.64 707.39 274.561 708.032 275.103C708.674 275.652 708.752 276.615 708.21 277.257L703.247 283.111C702.947 283.468 702.513 283.653 702.078 283.653Z" fill="#000045"/>
<path d="M705.557 293.837C705.172 293.837 704.787 293.694 704.487 293.402C703.881 292.81 703.874 291.84 704.466 291.241L709.971 285.622C710.563 285.023 711.533 285.009 712.132 285.6C712.738 286.192 712.745 287.162 712.153 287.761L706.648 293.38C706.349 293.687 705.949 293.837 705.557 293.837Z" fill="#000045"/>
<path d="M711.299 301.232C710.935 301.232 710.571 301.104 710.279 300.84C709.651 300.276 709.594 299.314 710.157 298.679L713.709 294.714C714.272 294.087 715.242 294.029 715.87 294.593C716.497 295.156 716.554 296.119 715.991 296.754L712.439 300.718C712.14 301.054 711.719 301.225 711.299 301.225V301.232Z" fill="#000045"/>
<path d="M497.614 610.907C497.101 610.907 496.595 610.65 496.309 610.18L473.64 573.205C473.197 572.485 473.426 571.543 474.146 571.101C474.866 570.659 475.807 570.887 476.25 571.608L498.919 608.582C499.362 609.303 499.133 610.244 498.413 610.686C498.163 610.836 497.885 610.914 497.614 610.914V610.907Z" fill="white"/>
<path fill-rule="evenodd" clip-rule="evenodd" d="M141.295 313.069C141.295 313.069 143.427 324.23 161.554 332.594L177.485 326.761L169.891 287.048L161.554 282.862L141.295 313.069Z" fill="#FFC8A3"/>
<path d="M125.885 416.67C125.222 416.67 124.616 416.242 124.416 415.572C124.295 415.151 112.4 373.213 140.604 329.343C165.577 290.535 171.624 253.04 160.229 207.765C150.138 167.702 155.123 133.829 155.173 133.494C155.301 132.66 156.086 132.082 156.913 132.211C157.747 132.339 158.318 133.116 158.196 133.951C158.146 134.286 153.262 167.574 163.195 207.016C174.819 253.175 168.643 291.412 143.178 330.99C115.759 373.634 127.233 414.295 127.354 414.702C127.59 415.515 127.126 416.363 126.32 416.599C126.178 416.642 126.028 416.663 125.885 416.663V416.67Z" fill="#4AC4D6"/>
<path d="M155.357 420.856C154.922 420.856 154.487 420.671 154.181 420.307C153.81 419.858 144.982 409.147 139.605 391.547C134.642 375.295 131.882 349.93 146.957 321.392C160.577 295.605 165.184 276.53 161.889 259.536C158.873 243.983 149.631 231.183 134.684 214.325C106.281 182.335 112.45 156.984 112.728 155.921C112.942 155.101 113.776 154.616 114.589 154.83C115.402 155.044 115.894 155.879 115.687 156.692C115.623 156.934 109.733 181.615 136.966 212.3C157.076 234.984 162.56 246.964 164.885 258.952C168.322 276.68 163.629 296.376 149.653 322.818C135.069 350.436 137.729 374.953 142.521 390.656C147.72 407.678 156.434 418.246 156.52 418.353C157.062 419.002 156.976 419.965 156.327 420.507C156.042 420.742 155.693 420.863 155.35 420.863L155.357 420.856Z" fill="#3D61FF"/>
<path d="M106.318 407.5C106.268 407.5 106.218 407.5 106.168 407.492C105.327 407.414 104.713 406.665 104.792 405.824C107.659 376.344 120.452 355.179 138.158 325.884C139.235 324.094 140.333 322.283 141.453 320.429C146.145 312.627 151.408 305.339 156.492 298.287C172.537 276.045 187.691 255.037 187.006 218.511C186.129 169.556 192.005 160.956 192.255 160.614C192.754 159.936 193.71 159.787 194.394 160.286C195.065 160.778 195.221 161.712 194.744 162.397C194.473 162.81 189.224 171.56 190.066 218.461C190.772 255.999 174.605 278.412 158.974 300.084C153.925 307.087 148.705 314.325 144.077 322.012C142.965 323.866 141.866 325.677 140.783 327.467C123.283 356.412 110.639 377.335 107.844 406.123C107.766 406.915 107.102 407.507 106.325 407.507L106.318 407.5Z" fill="#FF3D3D"/>
<path fill-rule="evenodd" clip-rule="evenodd" d="M149.703 265.284C149.703 265.284 139.648 268.072 140.304 277.143C140.304 277.143 132.189 283.197 134.392 289.986C134.392 289.986 128.595 295.748 131.162 302.943C131.162 302.943 127.967 308.484 131.162 312.962C134.357 317.441 143.42 322.069 147.934 315.13C147.934 315.13 153.511 310.837 152.448 305.403C152.448 305.403 157.697 302.394 158.061 296.996C158.061 296.996 165.106 293.473 165.035 285.985V281.764L149.696 265.284H149.703Z" fill="#FFC8A3"/>
<path fill-rule="evenodd" clip-rule="evenodd" d="M190.849 312.15C190.849 312.15 180.98 283.818 179.468 277.207C178.071 271.153 163.537 267.152 153.155 262.375C152.42 262.047 151.543 262.082 150.844 262.56C150.145 263.002 149.746 263.808 149.781 264.614C149.967 268.721 152.498 275.66 165.199 282.049C165.199 282.049 161.198 295.449 165.199 307.522L172.537 321.285L190.849 312.143V312.15Z" fill="#FFC8A3"/>
<path d="M165.191 309.055C164.55 309.055 163.951 308.648 163.737 308.006C160.299 297.624 162.496 286.506 163.394 282.848C156.869 279.368 152.391 275.396 150.073 271.025C149.681 270.276 149.959 269.356 150.708 268.957C151.457 268.557 152.377 268.842 152.776 269.591C154.923 273.634 159.33 277.371 165.883 280.687C166.539 281.022 166.867 281.778 166.66 282.484C166.625 282.613 162.852 295.584 166.646 307.037C166.91 307.835 166.475 308.705 165.676 308.969C165.519 309.019 165.355 309.048 165.199 309.048L165.191 309.055Z" fill="#000045"/>
<path d="M154.879 294.151C154.551 294.151 154.216 294.044 153.938 293.83C147.52 288.831 142.714 282.085 142.507 281.8C142.022 281.108 142.179 280.16 142.871 279.668C143.562 279.183 144.518 279.34 145.003 280.031C145.053 280.096 149.766 286.706 155.814 291.42C156.477 291.94 156.598 292.896 156.077 293.566C155.778 293.951 155.329 294.158 154.872 294.158L154.879 294.151Z" fill="#000045"/>
<path d="M148.826 304.248C148.498 304.248 148.163 304.141 147.885 303.92C141.496 298.9 137.188 293.309 137.01 293.074C136.497 292.404 136.625 291.448 137.295 290.935C137.966 290.421 138.928 290.549 139.442 291.22C139.485 291.277 143.706 296.753 149.782 301.517C150.445 302.038 150.559 303 150.039 303.664C149.739 304.049 149.29 304.248 148.833 304.248H148.826Z" fill="#000045"/>
<path d="M145.118 313.825C144.869 313.825 144.619 313.761 144.384 313.64C137.709 309.982 134.229 304.89 134.086 304.676C133.616 303.977 133.801 303.029 134.5 302.551C135.199 302.08 136.147 302.266 136.618 302.965C136.675 303.043 139.877 307.686 145.853 310.959C146.594 311.365 146.865 312.292 146.459 313.034C146.181 313.54 145.66 313.825 145.118 313.825Z" fill="#000045"/>
<path fill-rule="evenodd" clip-rule="evenodd" d="M189.823 155.686L182.185 161.961L203.215 169.67L201.453 159.943C223.952 164.051 248.804 146.879 259.044 118.875C270.24 88.34 259.886 56.4069 235.961 47.6713C212.029 38.9 183.547 56.5923 172.351 87.1277C162.111 115.131 169.962 144.312 189.823 155.693V155.686Z" fill="#FF3D3D"/>
<path fill-rule="evenodd" clip-rule="evenodd" d="M108.449 153.005C87.0485 151.208 68.8071 129.515 66.4253 101.618C63.8225 71.1899 81.0726 44.8405 104.89 42.8152C128.715 40.7971 150.144 63.8092 152.754 94.2376C155.143 122.134 140.824 146.615 120.051 152.049L125.371 159.608L104.448 161.37L108.449 152.998V153.005Z" fill="#3D61FF"/>
<path fill-rule="evenodd" clip-rule="evenodd" d="M150.808 127.418C126.583 121.179 109.811 92.7684 112.45 60.2506C115.316 24.8305 140.161 -2.11081 167.908 0.128352C195.655 2.40317 215.843 32.9813 212.984 68.4015C210.381 100.919 189.237 126.285 164.314 128.488L168.978 138.215L144.639 136.232L150.808 127.426V127.418Z" fill="#4AC4D6"/>
<path d="M126.898 38.4937C126.67 38.4937 126.441 38.4437 126.22 38.3368C125.464 37.966 125.151 37.0461 125.529 36.2902C131.882 23.4043 142.13 13.9413 153.639 10.3258C154.438 10.0762 155.301 10.5184 155.558 11.3242C155.814 12.13 155.365 12.9857 154.559 13.2424C143.841 16.6083 134.264 25.5008 128.281 37.6379C128.017 38.1799 127.475 38.4937 126.905 38.4937H126.898Z" fill="white"/>
<path d="M255.97 95.4853C255.143 95.4853 254.466 94.8293 254.444 93.9949C254.116 81.651 249.581 70.6263 241.986 63.7519C241.359 63.1886 241.316 62.2188 241.879 61.5912C242.443 60.9637 243.412 60.9138 244.04 61.4842C252.248 68.9149 257.154 80.7382 257.496 93.9165C257.518 94.7579 256.855 95.4639 256.006 95.4853C255.992 95.4853 255.977 95.4853 255.963 95.4853H255.97Z" fill="white"/>
<path d="M75.3616 81.3516C75.2189 81.3516 75.0692 81.3302 74.9194 81.2874C74.1136 81.045 73.6501 80.1892 73.8926 79.3834C77.4652 67.5102 84.8388 57.9973 94.1235 53.2765C94.8794 52.8914 95.7993 53.198 96.1772 53.9468C96.5623 54.7027 96.2628 55.6226 95.5069 56.0006C86.9638 60.3434 80.1465 69.186 76.8163 80.2606C76.6166 80.9237 76.0105 81.3516 75.3544 81.3516H75.3616Z" fill="white"/>
<path fill-rule="evenodd" clip-rule="evenodd" d="M279.859 591.945L355.32 517.033C354.329 516.519 353.445 515.97 352.675 515.343C346.877 510.715 283.118 435.988 283.118 435.988L227.731 340.26C227.731 340.26 218.667 321.32 204.869 323.851C204.869 323.851 197.787 313.975 194.628 309.611C193.708 308.363 192.132 307.735 190.628 308.106C184.203 309.76 167.067 315.779 156.898 334.791C156.092 336.295 155.942 338.057 156.498 339.675C157.818 343.676 160.385 351.313 160.385 351.313C160.385 351.313 156.712 363.686 161.633 375.245C166.589 386.805 208.391 473.319 208.391 473.319L279.852 591.945H279.859Z" fill="#FF7A3D"/>
<path fill-rule="evenodd" clip-rule="evenodd" d="M279.859 591.945L355.32 517.033C354.329 516.519 353.445 515.97 352.675 515.343C346.877 510.715 283.118 435.988 283.118 435.988L227.731 340.26C227.731 340.26 218.667 321.32 204.869 323.851C204.869 323.851 197.787 313.975 194.628 309.611C193.708 308.363 192.132 307.735 190.628 308.106C184.203 309.76 167.067 315.779 156.898 334.791C156.092 336.295 155.942 338.057 156.498 339.675C157.818 343.676 160.385 351.313 160.385 351.313C160.385 351.313 156.712 363.686 161.633 375.245C166.589 386.805 208.391 473.319 208.391 473.319L279.852 591.945H279.859Z" fill="url(#paint3_linear_27_7964)"/>
<path d="M167.323 347.263C166.867 347.263 166.411 347.056 166.111 346.664C165.598 345.994 165.726 345.038 166.396 344.518C166.553 344.396 181.935 332.644 194.985 326.226C195.741 325.856 196.661 326.169 197.032 326.925C197.402 327.681 197.089 328.601 196.333 328.972C183.554 335.254 168.407 346.828 168.25 346.942C167.972 347.156 167.644 347.256 167.323 347.256V347.263Z" fill="white"/>
<path d="M284.039 590.905C283.683 590.905 283.319 590.776 283.027 590.519C282.392 589.963 282.335 588.993 282.891 588.359L297.759 571.515C298.316 570.88 299.285 570.823 299.92 571.38C300.555 571.936 300.612 572.906 300.056 573.54L285.187 590.384C284.888 590.726 284.46 590.905 284.039 590.905Z" fill="white"/>
</g>
<defs>
<linearGradient id="paint0_linear_27_7964" x1="465.851" y1="1016.89" x2="465.851" y2="392.157" gradientUnits="userSpaceOnUse">
<stop offset="0.255" stop-color="#4AC4D6"/>
<stop offset="1" stop-color="#1B7A88"/>
</linearGradient>
<linearGradient id="paint1_linear_27_7964" x1="314.856" y1="1020.8" x2="314.856" y2="382.141" gradientUnits="userSpaceOnUse">
<stop offset="0.255" stop-color="#4AC4D6"/>
<stop offset="1" stop-color="#1B7A88"/>
</linearGradient>
<linearGradient id="paint2_linear_27_7964" x1="779.446" y1="269.372" x2="399.605" y2="704.92" gradientUnits="userSpaceOnUse">
<stop offset="0.255" stop-color="#4AC4D6"/>
<stop offset="1" stop-color="#1B7A88"/>
</linearGradient>
<linearGradient id="paint3_linear_27_7964" x1="115.454" y1="238.634" x2="429.906" y2="699.829" gradientUnits="userSpaceOnUse">
<stop offset="0.255" stop-color="#4AC4D6"/>
<stop offset="1" stop-color="#1B7A88"/>
</linearGradient>
<clipPath id="clip0_27_7964">
<rect width="724.52" height="843.402" fill="white"/>
</clipPath>
</defs>
</svg>
