<svg width="42" height="47" viewBox="0 0 42 47" fill="none" xmlns="http://www.w3.org/2000/svg">
<path d="M30.7868 15.8602L4.65371 0.52647C3.31707 -0.258379 1.73708 0.190596 0.921387 1.29247L23.0548 23.5544L30.7885 15.8584L30.7868 15.8602Z" fill="url(#paint0_linear_248_122)"/>
<path d="M0.370117 44.0031C0.370117 44.6234 0.560323 45.1769 0.875634 45.6276L23.0554 23.5559L0.921906 1.29395C0.579177 1.75663 0.370117 2.33241 0.370117 2.98189V44.0031Z" fill="url(#paint1_linear_248_122)"/>
<path d="M30.6554 31.2004L39.6126 25.9447C41.4856 24.8445 41.4856 22.1369 39.6126 21.0368L30.7874 15.8599L23.0537 23.5558L30.6554 31.2021V31.2004Z" fill="url(#paint2_linear_248_122)"/>
<path d="M0.874023 45.6274C1.67601 46.7755 3.29199 47.2571 4.65433 46.4568L30.6554 31.2019L23.0537 23.5557L0.874023 45.6274Z" fill="url(#paint3_linear_248_122)"/>
<defs>
<linearGradient id="paint0_linear_248_122" x1="-34.4876" y1="-30.7441" x2="19.415" y2="13.5416" gradientUnits="userSpaceOnUse">
<stop stop-color="#32A071"/>
<stop offset="0.07" stop-color="#2DA771"/>
<stop offset="0.48" stop-color="#15CF74"/>
<stop offset="0.8" stop-color="#06E775"/>
<stop offset="1" stop-color="#00F076"/>
</linearGradient>
<linearGradient id="paint1_linear_248_122" x1="38.5159" y1="23.2389" x2="-1.73253" y2="23.4754" gradientUnits="userSpaceOnUse">
<stop stop-color="#00A1FF"/>
<stop offset="0.26" stop-color="#00BEFF"/>
<stop offset="0.51" stop-color="#00D2FF"/>
<stop offset="0.76" stop-color="#00DFFF"/>
<stop offset="1" stop-color="#00E3FF"/>
</linearGradient>
<linearGradient id="paint2_linear_248_122" x1="44.1538" y1="24.584" x2="7.82286" y2="21.7342" gradientUnits="userSpaceOnUse">
<stop stop-color="#FFE000"/>
<stop offset="0.41" stop-color="#FFBD00"/>
<stop offset="0.78" stop-color="#FFA500"/>
<stop offset="1" stop-color="#FF9C00"/>
</linearGradient>
<linearGradient id="paint3_linear_248_122" x1="39.4225" y1="19.0351" x2="-30.5079" y2="65.4577" gradientUnits="userSpaceOnUse">
<stop stop-color="#FF3A44"/>
<stop offset="1" stop-color="#C31162"/>
</linearGradient>
</defs>
</svg>
