<svg width="38" height="24" viewBox="0 0 38 24" fill="none" xmlns="http://www.w3.org/2000/svg">
<path d="M23.9137 3.24475H13.835V21.3327H23.9137V3.24475Z" fill="#FF5F00"/>
<path d="M14.4749 12.2893C14.4749 8.774 16.1067 5.41847 18.8584 3.24536C13.867 -0.685399 6.63596 0.177451 2.70047 5.19477C-1.23501 10.1801 -0.371127 17.4025 4.65222 21.3333C8.84367 24.6249 14.6989 24.6249 18.8904 21.3333C16.1067 19.1602 14.4749 15.8046 14.4749 12.2893Z" fill="#EB001B"/>
<path d="M37.512 12.2891C37.512 18.6486 32.3606 23.7937 25.9935 23.7937C23.4018 23.7937 20.9061 22.9309 18.8904 21.333C23.8817 17.4023 24.7456 10.1799 20.8101 5.16257C20.2342 4.4595 19.5943 3.7884 18.8904 3.24512C23.8817 -0.685644 31.1448 0.177207 35.0483 5.19452C36.6481 7.20784 37.512 9.70052 37.512 12.2891Z" fill="#F79E1B"/>
<path d="M36.4241 19.4146V19.0312H36.584V18.9673H36.2002V19.0312H36.3601V19.4146H36.4241ZM37.1598 19.4146V18.9673H37.0318L36.9039 19.2868L36.776 18.9673H36.648V19.4146H36.744V19.0631L36.8719 19.3507H36.9679L37.0958 19.0631V19.4146H37.1598Z" fill="#F79E1B"/>
</svg>
