<svg width="62" height="46" viewBox="0 0 62 46" fill="none" xmlns="http://www.w3.org/2000/svg">
<path d="M17.1003 45.2049C13.2907 44.9585 9.67084 43.7049 6.7577 41.6229C3.84456 39.5409 1.78708 36.737 0.879024 33.6116C-0.0290301 30.4862 0.25878 27.1991 1.70136 24.2197C3.14394 21.2403 5.66752 18.7208 8.91178 17.0212C9.60209 12.4885 12.2301 8.32298 16.3041 5.30416C20.3781 2.28534 25.6187 0.620117 31.0454 0.620117C36.472 0.620117 41.7127 2.28534 45.7866 5.30416C49.8606 8.32298 52.4886 12.4885 53.179 17.0212C56.4232 18.7208 58.9468 21.2403 60.3894 24.2197C61.832 27.1991 62.1198 30.4862 61.2117 33.6116C60.3037 36.737 58.2462 39.5409 55.333 41.6229C52.4199 43.7049 48.8001 44.9585 44.9904 45.2049V45.2495H17.1003V45.2049ZM33.8344 26.4604H42.2014L31.0454 14.7171L19.8893 26.4604H28.2564V35.8549H33.8344V26.4604Z" fill="#23555C"/>
</svg>
