<svg width="41" height="51" viewBox="0 0 41 51" fill="none" xmlns="http://www.w3.org/2000/svg">
<path d="M39.6887 18.566C37.6152 20.0072 36.2065 21.4535 35.4611 22.9066C34.7157 24.3598 34.3421 25.9346 34.3421 27.6277C34.3421 28.9678 34.5632 30.193 35.0053 31.3052C35.4474 32.4174 36.0729 33.473 36.8817 34.472C37.6906 35.4711 39.0426 36.4633 40.9396 37.4486C40.2062 39.5975 39.0683 41.7893 37.5278 44.0273C35.9855 46.2636 34.5889 47.8504 33.3379 48.7861C32.0869 49.7217 30.8925 50.1896 29.7547 50.1896C28.8447 50.1896 27.6178 49.9 26.0772 49.3173L25.3575 49.0517L24.1819 48.5582C23.3474 48.3063 22.4254 48.1795 21.4144 48.1795C20.4033 48.1795 19.2158 48.4074 17.9254 48.8615L17.0154 49.2025L15.8776 49.6583C14.9676 50.0131 14.0577 50.1896 13.1477 50.1896C11.2267 50.1896 9.16695 48.8443 6.96663 46.1522C4.76802 43.4601 3.10579 40.5657 1.97993 37.4692C0.854063 34.3726 0.291992 31.2452 0.291992 28.0853C0.291992 24.0154 1.4487 20.6292 3.76212 17.9234C6.07554 15.2192 9.21493 13.8672 13.1837 13.8672C14.6249 13.8672 15.977 14.1328 17.2416 14.664L18.1139 15.005L19.0238 15.3837C19.8327 15.7128 20.477 15.8773 20.9568 15.8773C21.6646 15.8773 22.3723 15.7385 23.08 15.4608L24.2933 15.005L25.1655 14.664C26.581 14.1328 28.1473 13.8672 29.8678 13.8672C33.9377 13.8672 37.2107 15.4351 39.6887 18.5694V18.566ZM30.058 0.497314C30.1077 1.05425 30.1334 1.48266 30.1334 1.78597C30.1334 3.35396 29.6776 4.97164 28.7676 6.63901C27.8577 8.30639 26.6684 9.60362 25.2032 10.5256C23.7364 11.4492 22.1187 11.9102 20.3502 11.9102C20.2748 11.3035 20.2371 10.8614 20.2371 10.5838C20.2371 9.24375 20.6347 7.83513 21.4315 6.35626C22.2283 4.87738 23.3079 3.61957 24.6737 2.58282C26.0395 1.54606 27.5801 0.889734 29.2988 0.61041C29.4514 0.586419 29.7033 0.54701 30.058 0.497314Z" fill="#333333"/>
</svg>
